<?xml version="1.0" standalone="no"?><!DOCTYPE svg PUBLIC "-//W3C//DTD SVG 1.1//EN" "http://www.w3.org/Graphics/SVG/1.1/DTD/svg11.dtd"><svg t="1498041933008" class="icon" style="" viewBox="0 0 1024 1024" version="1.1" xmlns="http://www.w3.org/2000/svg" p-id="11354" xmlns:xlink="http://www.w3.org/1999/xlink" width="32" height="32"><defs><style type="text/css"></style></defs><path d="M922.5 310.1c26.5-26.5 26.4-69.5-0.1-96.1L792.5 84.2c-26.6-26.6-69.6-26.6-96.1-0.1L564.1 216.3l225.8 226.3 132.6-132.5zM167.4 612.9c-13.8 13.8-24.1 30.7-30 49.4l-56 204.6c-11.2 35.6 22.4 69.2 58 58l204.6-56c18.6-5.9 35.6-16.1 49.4-29.9l50.9-50.9-225.7-226.4-51.2 51.2z m161-513.8c-29-29-76-29-105 0L100.9 221.6c-29 29-29 76 0 105l58 58 107.6-107.7c14.4-14.5 37.9-14.5 52.3 0 14.4 14.5 14.4 37.9 0 52.4L211.2 437l52.4 52.4 63.9-64.1c14.4-14.5 37.9-14.5 52.3 0 14.4 14.5 14.4 37.9 0 52.4l-63.9 64.1 52.3 52.3 107.5-107.6c14.4-14.5 37.9-14.5 52.3 0 14.4 14.5 14.4 37.9 0 52.4L420.6 646.5l52.4 52.4 0.5-0.5 63.4-63.5c14.4-14.5 37.9-14.5 52.3 0 14.4 14.5 14.4 37.9 0 52.4l-63.4 63.5c-0.1 0.1-0.3 0.3-0.5 0.4l52.3 52.3L685 696c14.4-14.5 37.9-14.5 52.3 0 14.4 14.5 14.4 37.9 0 52.4L629.9 855.9l63 63c29 29 76 29 105 0l122.5-122.5c29-29 29-76 0-105l-592-592.3z" p-id="11355" fill="#ffffff"></path></svg>