<?xml version="1.0" standalone="no"?><!DOCTYPE svg PUBLIC "-//W3C//DTD SVG 1.1//EN" "http://www.w3.org/Graphics/SVG/1.1/DTD/svg11.dtd"><svg t="1497506753434" class="icon" style="" viewBox="0 0 1024 1024" version="1.1" xmlns="http://www.w3.org/2000/svg" p-id="14121" xmlns:xlink="http://www.w3.org/1999/xlink" width="32" height="32"><defs><style type="text/css"></style></defs><path d="M49.536 672.64c3.797333-6.613333 52.437333-29.952 126.506667 57.216 0.170667 0 0.426667 0.128 0.768 0.426667 5.205333 4.309333 29.610667 39.210667 43.434666 51.797333 59.093333 53.248 147.541333 11.989333 157.610667 6.016 4.693333-38.186667 19.072-68.266667 43.178667-90.368a292.138667 292.138667 0 0 1-64.256-10.026667 205.141333 205.141333 0 0 1-61.226667-18.048 169.685333 169.685333 0 0 1-58.24-29.141333c-17.408-9.344-33.792-23.424-49.152-42.154667a205.098667 205.098667 0 0 1-40.192-58.24c-10.666667-20.053333-19.072-45.824-25.088-77.269333-6.016-28.8-9.045333-61.909333-9.045333-99.413333 0-68.906667 23.082667-129.493333 69.290666-181.717334-2.730667-5.376-33.109333-77.056 7.978667-179.712C246.656 0 306.56 25.429333 376.832 70.229333c51.541333-11.989333 108.074667-19.370667 169.685333-22.101333a892.16 892.16 0 0 1 169.685334 22.101333c23.381333-14.037333 105.813333-70.229333 184.661333-66.218666 37.802667 89.344 11.050667 169.984 7.04 178.688 46.165333 46.208 69.248 104.746667 69.248 175.701333v6.016c0.341333 5.034667 0.512 10.069333 0.512 15.104 0 27.733333-3.157333 55.893333-9.557333 84.352a347.733333 347.733333 0 0 1-25.088 77.312 282.410667 282.410667 0 0 1-39.168 57.216 368 368 0 0 1-49.194667 41.173333 498.346667 498.346667 0 0 1-57.216 28.117334 1902.933333 1902.933333 0 0 1-61.269333 18.048 1566.72 1566.72 0 0 0-64.256 10.026666c30.122667 25.472 45.525333 66.944 46.208 124.501334-0.298667 17.365333-0.469333 35.882667-0.469334 55.466666s0.170667 40.234667 0.469334 61.994667c-0.682667 21.418667-0.981333 37.674667-0.981334 48.725333s0.298667 16.896 0.981334 17.536a682.112 682.112 0 0 1-159.573334 20.010667h-15.061333c-54.570667 0-107.776-6.656-159.658667-20.096-0.682667-0.682667-0.981333-39.168-0.981333-115.413333-20.778667 4.650667-157.525333 31.488-218.197333-69.845334-19.328-29.994667-35.456-103.296-101.034667-135.978666-6.954667 18.005333-28.970667 2.645333-14.08-10.026667z" fill="#ffffff" p-id="14122"></path></svg>