<?xml version="1.0" standalone="no"?><!DOCTYPE svg PUBLIC "-//W3C//DTD SVG 1.1//EN" "http://www.w3.org/Graphics/SVG/1.1/DTD/svg11.dtd"><svg t="1498039108067" class="icon" style="" viewBox="0 0 1024 1024" version="1.1" xmlns="http://www.w3.org/2000/svg" p-id="6319" xmlns:xlink="http://www.w3.org/1999/xlink" width="16" height="16"><defs><style type="text/css"></style></defs><path d="M219.428571 438.857143H146.285714c-21.942857 0-36.571429 18.285714-36.571428 36.571428v73.142858c0 21.942857 18.285714 36.571429 36.571428 36.571428h73.142857c21.942857 0 36.571429-18.285714 36.571429-36.571428v-73.142858c0-21.942857-18.285714-36.571429-36.571429-36.571428zM219.428571 109.714286H146.285714c-21.942857 0-36.571429 18.285714-36.571428 36.571428v73.142857c0 21.942857 18.285714 36.571429 36.571428 36.571429h73.142857c21.942857 0 36.571429-18.285714 36.571429-36.571429V146.285714c0-21.942857-18.285714-36.571429-36.571429-36.571428zM219.428571 768H146.285714c-21.942857 0-36.571429 18.285714-36.571428 36.571429v73.142857c0 21.942857 18.285714 36.571429 36.571428 36.571428h73.142857c21.942857 0 36.571429-18.285714 36.571429-36.571428v-73.142857c0-21.942857-18.285714-36.571429-36.571429-36.571429zM877.714286 438.857143H402.285714c-21.942857 0-36.571429 18.285714-36.571428 36.571428v73.142858c0 21.942857 18.285714 36.571429 36.571428 36.571428h475.428572c21.942857 0 36.571429-18.285714 36.571428-36.571428v-73.142858c0-21.942857-18.285714-36.571429-36.571428-36.571428zM877.714286 768H402.285714c-21.942857 0-36.571429 18.285714-36.571428 36.571429v73.142857c0 21.942857 18.285714 36.571429 36.571428 36.571428h475.428572c21.942857 0 36.571429-18.285714 36.571428-36.571428v-73.142857c0-21.942857-18.285714-36.571429-36.571428-36.571429zM877.714286 109.714286H402.285714c-21.942857 0-36.571429 18.285714-36.571428 36.571428v73.142857c0 21.942857 18.285714 36.571429 36.571428 36.571429h475.428572c21.942857 0 36.571429-18.285714 36.571428-36.571429V146.285714c0-21.942857-18.285714-36.571429-36.571428-36.571428z" p-id="6320" fill="#ffffff"></path></svg>