<?xml version="1.0" standalone="no"?><!DOCTYPE svg PUBLIC "-//W3C//DTD SVG 1.1//EN" "http://www.w3.org/Graphics/SVG/1.1/DTD/svg11.dtd"><svg t="1498041424319" class="icon" style="" viewBox="0 0 1024 1024" version="1.1" xmlns="http://www.w3.org/2000/svg" p-id="4779" xmlns:xlink="http://www.w3.org/1999/xlink" width="32" height="32"><defs><style type="text/css"></style></defs><path d="M324.125112 512.051164l83.090637-83.090636c13.712002-14.223643 13.507345-36.531228-0.306985-50.24323-13.81433-13.81433-36.121915-14.018987-50.140902-0.409314L248.29979 486.776057c-13.916658 13.916658-13.916658 36.531228 0 50.550215l108.365744 108.365744c14.018987 13.916658 36.531228 13.916658 50.550215 0 14.018987-14.018987 14.018987-36.633557 0-50.550215l-83.090637-83.090637zM565.210752 326.018187c-8.902568-2.660538-18.82842-1.637254-27.219346 2.967523-8.390926 4.604777-14.530629 12.484061-16.986509 21.693614l-86.67213 303.30129c-2.660538 9.004897-1.534926 18.82842 3.069851 27.117018 4.604777 8.288598 12.279404 14.4283 21.38663 16.986509 9.107225 2.660538 18.930748 1.534926 27.219346-3.069851 8.288598-4.604777 14.4283-12.279404 16.986509-21.386629l86.67213-303.505946c2.660538-9.004897 1.534926-18.82842-3.069851-27.117018-4.604777-8.288598-12.279404-14.4283-21.38663-16.98651zM667.334466 378.410313c-14.223643-13.712002-36.531228-13.507345-50.24323 0.306985-13.81433 13.81433-14.018987 36.121915-0.409313 50.140901l83.295293 83.295294-83.090637 83.090636c-6.753672 6.651344-10.539822 15.758569-10.539822 25.275108 0 9.516538 3.78615 18.623763 10.539822 25.377435 14.018987 13.916658 36.531228 13.916658 50.550215 0L775.70021 537.326272c13.916658-13.916658 13.916658-36.531228 0-50.550215l-108.365744-108.365744z" p-id="4780" fill="#ffffff"></path><path d="M750.732088 77.155591H273.267912c-108.161087 0-196.163486 88.002398-196.163485 196.163486V750.783252c0 108.161087 88.002398 196.163486 196.163485 196.163485h477.464176c108.161087 0 196.163486-88.002398 196.163485-196.163485v-477.464175c0-108.263416-88.002398-196.163486-196.163485-196.163486z m113.072849 676.083542c0 60.987709-49.62926 110.616968-110.616969 110.616968H270.812032c-60.987709 0-110.616968-49.62926-110.616969-110.616968V270.863196c0-60.987709 49.62926-110.616968 110.616969-110.616968H753.187968c60.987709 0 110.616968 49.62926 110.616969 110.616968v482.375937z" p-id="4781" fill="#ffffff"></path></svg>