<?xml version="1.0" standalone="no"?><!DOCTYPE svg PUBLIC "-//W3C//DTD SVG 1.1//EN" "http://www.w3.org/Graphics/SVG/1.1/DTD/svg11.dtd"><svg t="1498042030266" class="icon" style="" viewBox="0 0 1024 1024" version="1.1" xmlns="http://www.w3.org/2000/svg" p-id="14752" xmlns:xlink="http://www.w3.org/1999/xlink" width="32" height="32"><defs><style type="text/css"></style></defs><path d="M925.661867 766.549333c-50.909867-16.196267-106.4448-23.1424-161.9968-23.1424-78.677333 0-192.068267 30.088533-254.549334 69.4272V280.593067c62.464-39.355733 175.872-69.4272 254.549334-69.4272 55.552 0 111.086933 6.929067 161.9968 23.1424v532.241066z m0-624.810666c-51.370667-16.213333-107.844267-23.1424-161.9968-23.1424-90.248533 0-187.4432 18.517333-254.549334 69.4272-67.106133-50.909867-164.3008-69.4272-254.5664-69.4272S67.106133 137.1136 0 188.023467v678.0416c0 11.5712 11.5712 23.1424 23.1424 23.1424 4.625067 0 6.946133-2.321067 11.5712-2.321067 62.481067-30.071467 152.746667-50.909867 219.835733-50.909867 90.2656 0 187.460267 18.517333 254.5664 69.4272 62.464-39.338667 175.872-69.4272 254.549334-69.4272 76.373333 0 155.050667 13.892267 219.8528 48.605867 4.625067 2.304 6.946133 2.304 11.5712 2.304 11.5712 0 23.1424-11.5712 23.1424-23.1424V188.023467c-27.767467-20.821333-57.856-34.7136-92.5696-46.2848z" p-id="14753" fill="#ffffff"></path></svg>