<?xml version="1.0" standalone="no"?><!DOCTYPE svg PUBLIC "-//W3C//DTD SVG 1.1//EN" "http://www.w3.org/Graphics/SVG/1.1/DTD/svg11.dtd"><svg t="1501585775148" class="icon" style="" viewBox="0 0 1025 1024" version="1.1" xmlns="http://www.w3.org/2000/svg" p-id="4768" xmlns:xlink="http://www.w3.org/1999/xlink" width="32" height="32"><defs><style type="text/css"></style></defs><path d="M912.045955 313.259287c-22.103451-46.546292-53.683172-88.293047-93.86317-124.082852-39.967141-35.59946-86.455101-63.529896-138.174454-83.014581-53.383329-20.112001-110.052651-30.309737-168.432-30.309737-58.379349 0-115.048671 10.197735-168.433023 30.309737-51.719353 19.484685-98.208337 47.41512-138.174454 83.014581-40.179999 35.789804-71.760743 77.53656-93.86317 124.082852-22.99684 48.429266-34.65695 99.894826-34.65695 152.967055 0 89.659227 34.325383 176.387564 96.94961 245.718861l-35.858369 152.642651c-0.020467 0.086985-0.040934 0.174994-0.060378 0.263002-3.307484 14.78032 1.380506 30.31383 12.236259 40.538173 7.61274 7.171674 17.320288 10.981626 27.303119 10.980602 3.662589 0 7.364065-0.512701 11.01028-1.56164 1.09806-0.315193 2.173607-0.704068 3.219476-1.163555l157.273334-69.067272c12.937258-5.681669 18.819504-20.775136 13.137835-33.71137-5.681669-12.937258-20.774112-18.81848-33.71137-13.137835l-136.191192 59.808976 34.584292-147.216821c1.992473-8.483615-0.468697-17.39704-6.5331-23.654857-59.449779-61.346056-92.191008-139.632735-92.191008-220.438915 0-187.039669 172.243998-339.20646 383.959833-339.20646 211.715835 0 383.95881 152.167814 383.95881 339.20646s-172.243998 339.20646-383.95881 339.20646c-27.796376 0-55.528281-2.637187-82.424105-7.838901-13.873628-2.681191-27.293909 6.388807-29.976123 20.260388-2.683238 13.872604 6.388807 27.293909 20.261411 29.976123 30.089715 5.818798 61.090217 8.769131 92.13984 8.769131 58.379349 0 115.048671-10.197735 168.432-30.309737 51.719353-19.484685 98.208337-47.41512 138.174454-83.014581 40.179999-35.789804 71.759719-77.53656 93.86317-124.082852 22.99684-48.429266 34.65695-99.894826 34.65695-152.967055C946.702905 413.154113 935.042795 361.688552 912.045955 313.259287zM342.512921 403.793482c-30.163397 0-54.614425 24.452051-54.614425 54.614425 0 30.163397 24.452051 54.614425 54.614425 54.614425s54.614425-24.452051 54.614425-54.614425C397.128369 428.245533 372.676318 403.793482 342.512921 403.793482zM566.617495 458.407907c0-30.162374-24.452051-54.614425-54.614425-54.614425-30.163397 0-54.614425 24.452051-54.614425 54.614425 0 30.163397 24.452051 54.614425 54.614425 54.614425C542.165444 513.023355 566.617495 488.571304 566.617495 458.407907zM736.107644 458.407907c0-30.162374-24.452051-54.614425-54.614425-54.614425-30.162374 0-54.614425 24.452051-54.614425 54.614425 0 30.163397 24.452051 54.614425 54.614425 54.614425C711.655593 513.023355 736.107644 488.571304 736.107644 458.407907z" fill="#ffffff" p-id="4769"></path></svg>